# xmcd CD database file
#
# Track frame offsets:
#	150
#	14222
#	28997
#	39895
#	62595
#	77500
#	89437
#	101515
#	123157
#	135127
#	147492
#	165715
#
# Disc length: 2432 seconds
#
# Revision: 3
# Processed by: cddbd v1.4PL0 Copyright (c) Steve Scherf et al.
# Submitted via: CDex 1.50Beta5
#
DISCID=97097e0c
DTITLE=Reverend Horton Heat - Smoke 'Em If You Got 'Em
DYEAR=1990
DGENRE=Rock and Roll
TTITLE0=Bullet
TTITLE1=I'm Mad
TTITLE2=Bad Reputation
TTITLE3=It's A Dark Day
TTITLE4=Big Dwarf Rodeo
TTITLE5=Psychobill Freakout
TTITLE6=Put It To Me Straight
TTITLE7=Marijuana
TTITLE8=Baby, You Know Who
TTITLE9=Eat Steak
TTITLE10='D' For Dangerous
TTITLE11=Love Whip
EXTD=YEAR: 1990
EXTT0=
EXTT1=
EXTT2=
EXTT3=
EXTT4=
EXTT5=
EXTT6=
EXTT7=
EXTT8=
EXTT9=
EXTT10=
EXTT11=
PLAYORDER=
